<mxfile host="app.diagrams.net" modified="2021-03-21T03:32:42.852Z" agent="5.0 (Windows NT 10.0; Win64; x64) AppleWebKit/537.36 (KHTML, like Gecko) Chrome/89.0.4389.90 Safari/537.36 Edg/89.0.774.57" etag="TgnFq1PTXAiqUk5KjUoL" version="14.4.9" type="github" pages="3">
  <diagram id="C5RBs43oDa-KdzZeNtuy" name="SignUp">
    <mxGraphModel dx="6200" dy="3443" grid="1" gridSize="10" guides="1" tooltips="1" connect="1" arrows="1" fold="1" page="1" pageScale="1" pageWidth="827" pageHeight="1169" math="0" shadow="0">
      <root>
        <mxCell id="WIyWlLk6GJQsqaUBKTNV-0" />
        <mxCell id="WIyWlLk6GJQsqaUBKTNV-1" parent="WIyWlLk6GJQsqaUBKTNV-0" />
        <mxCell id="DgegEfduvD-9TJVCM2Sk-5" style="edgeStyle=orthogonalEdgeStyle;rounded=0;orthogonalLoop=1;jettySize=auto;html=1;strokeWidth=2;" edge="1" parent="WIyWlLk6GJQsqaUBKTNV-1" source="DgegEfduvD-9TJVCM2Sk-0" target="DgegEfduvD-9TJVCM2Sk-1">
          <mxGeometry relative="1" as="geometry" />
        </mxCell>
        <mxCell id="DgegEfduvD-9TJVCM2Sk-6" style="edgeStyle=orthogonalEdgeStyle;rounded=0;orthogonalLoop=1;jettySize=auto;html=1;entryX=0.2;entryY=0.017;entryDx=0;entryDy=0;entryPerimeter=0;strokeWidth=2;" edge="1" parent="WIyWlLk6GJQsqaUBKTNV-1" source="DgegEfduvD-9TJVCM2Sk-0" target="DgegEfduvD-9TJVCM2Sk-2">
          <mxGeometry relative="1" as="geometry" />
        </mxCell>
        <mxCell id="DgegEfduvD-9TJVCM2Sk-7" style="edgeStyle=orthogonalEdgeStyle;rounded=0;orthogonalLoop=1;jettySize=auto;html=1;strokeWidth=2;" edge="1" parent="WIyWlLk6GJQsqaUBKTNV-1" source="DgegEfduvD-9TJVCM2Sk-0" target="DgegEfduvD-9TJVCM2Sk-3">
          <mxGeometry relative="1" as="geometry" />
        </mxCell>
        <mxCell id="DgegEfduvD-9TJVCM2Sk-8" style="edgeStyle=orthogonalEdgeStyle;rounded=0;orthogonalLoop=1;jettySize=auto;html=1;exitX=1;exitY=0.5;exitDx=0;exitDy=0;strokeWidth=2;" edge="1" parent="WIyWlLk6GJQsqaUBKTNV-1" source="DgegEfduvD-9TJVCM2Sk-0" target="DgegEfduvD-9TJVCM2Sk-4">
          <mxGeometry relative="1" as="geometry" />
        </mxCell>
        <mxCell id="DgegEfduvD-9TJVCM2Sk-0" value="SignUpController" style="rounded=0;whiteSpace=wrap;html=1;glass=0;sketch=1;shadow=0;" vertex="1" parent="WIyWlLk6GJQsqaUBKTNV-1">
          <mxGeometry x="350" y="10" width="120" height="60" as="geometry" />
        </mxCell>
        <mxCell id="DgegEfduvD-9TJVCM2Sk-1" value="Validator" style="rounded=0;whiteSpace=wrap;html=1;glass=0;sketch=1;shadow=0;" vertex="1" parent="WIyWlLk6GJQsqaUBKTNV-1">
          <mxGeometry x="140" y="120" width="120" height="60" as="geometry" />
        </mxCell>
        <mxCell id="DgegEfduvD-9TJVCM2Sk-2" value="Express" style="rounded=0;whiteSpace=wrap;html=1;glass=0;sketch=1;shadow=0;" vertex="1" parent="WIyWlLk6GJQsqaUBKTNV-1">
          <mxGeometry x="290" y="120" width="120" height="60" as="geometry" />
        </mxCell>
        <mxCell id="DgegEfduvD-9TJVCM2Sk-3" value="MongoDB" style="rounded=0;whiteSpace=wrap;html=1;glass=0;sketch=1;shadow=0;" vertex="1" parent="WIyWlLk6GJQsqaUBKTNV-1">
          <mxGeometry x="440" y="120" width="120" height="60" as="geometry" />
        </mxCell>
        <mxCell id="DgegEfduvD-9TJVCM2Sk-4" value="BCrypt" style="rounded=0;whiteSpace=wrap;html=1;glass=0;sketch=1;shadow=0;" vertex="1" parent="WIyWlLk6GJQsqaUBKTNV-1">
          <mxGeometry x="590" y="120" width="120" height="60" as="geometry" />
        </mxCell>
      </root>
    </mxGraphModel>
  </diagram>
  <diagram name="SignUp Final" id="fcD1_Ogq16sPSjzTvtP0">
    <mxGraphModel dx="3720" dy="2776" grid="1" gridSize="10" guides="1" tooltips="1" connect="1" arrows="1" fold="1" page="1" pageScale="1" pageWidth="827" pageHeight="1169" math="0" shadow="0">
      <root>
        <mxCell id="69O0-bxh-F-5_FMToNyd-0" />
        <mxCell id="69O0-bxh-F-5_FMToNyd-1" parent="69O0-bxh-F-5_FMToNyd-0" />
        <mxCell id="eIkQztVxaQHjGuMZLlB3-39" value="" style="rounded=0;whiteSpace=wrap;html=1;shadow=0;glass=0;sketch=1;" vertex="1" parent="69O0-bxh-F-5_FMToNyd-1">
          <mxGeometry x="50" y="-650" width="190" height="110" as="geometry" />
        </mxCell>
        <mxCell id="eIkQztVxaQHjGuMZLlB3-40" value="&lt;b&gt;Domain&lt;/b&gt;" style="text;html=1;strokeColor=none;fillColor=none;align=center;verticalAlign=middle;whiteSpace=wrap;rounded=0;shadow=0;glass=0;sketch=1;" vertex="1" parent="69O0-bxh-F-5_FMToNyd-1">
          <mxGeometry x="200" y="-670" width="40" height="20" as="geometry" />
        </mxCell>
        <mxCell id="eIkQztVxaQHjGuMZLlB3-41" value="" style="rounded=0;whiteSpace=wrap;html=1;shadow=0;glass=0;sketch=1;" vertex="1" parent="69O0-bxh-F-5_FMToNyd-1">
          <mxGeometry x="-640" y="-640" width="190" height="110" as="geometry" />
        </mxCell>
        <mxCell id="eIkQztVxaQHjGuMZLlB3-42" value="&lt;b&gt;Utils&lt;/b&gt;" style="text;html=1;strokeColor=none;fillColor=none;align=center;verticalAlign=middle;whiteSpace=wrap;rounded=0;shadow=0;glass=0;sketch=1;" vertex="1" parent="69O0-bxh-F-5_FMToNyd-1">
          <mxGeometry x="-490" y="-660" width="40" height="20" as="geometry" />
        </mxCell>
        <mxCell id="eIkQztVxaQHjGuMZLlB3-43" value="" style="rounded=0;whiteSpace=wrap;html=1;shadow=0;glass=0;sketch=1;" vertex="1" parent="69O0-bxh-F-5_FMToNyd-1">
          <mxGeometry x="-390" y="-650" width="400" height="180" as="geometry" />
        </mxCell>
        <mxCell id="eIkQztVxaQHjGuMZLlB3-44" style="edgeStyle=orthogonalEdgeStyle;rounded=0;orthogonalLoop=1;jettySize=auto;html=1;strokeWidth=2;" edge="1" parent="69O0-bxh-F-5_FMToNyd-1" source="eIkQztVxaQHjGuMZLlB3-47" target="eIkQztVxaQHjGuMZLlB3-57">
          <mxGeometry relative="1" as="geometry" />
        </mxCell>
        <mxCell id="eIkQztVxaQHjGuMZLlB3-45" style="edgeStyle=orthogonalEdgeStyle;rounded=0;orthogonalLoop=1;jettySize=auto;html=1;strokeWidth=2;" edge="1" parent="69O0-bxh-F-5_FMToNyd-1" source="eIkQztVxaQHjGuMZLlB3-47" target="eIkQztVxaQHjGuMZLlB3-60">
          <mxGeometry relative="1" as="geometry" />
        </mxCell>
        <mxCell id="eIkQztVxaQHjGuMZLlB3-46" style="edgeStyle=orthogonalEdgeStyle;rounded=0;orthogonalLoop=1;jettySize=auto;html=1;strokeWidth=2;" edge="1" parent="69O0-bxh-F-5_FMToNyd-1" source="eIkQztVxaQHjGuMZLlB3-47" target="eIkQztVxaQHjGuMZLlB3-61">
          <mxGeometry relative="1" as="geometry" />
        </mxCell>
        <mxCell id="eIkQztVxaQHjGuMZLlB3-47" value="SignUpController" style="rounded=0;whiteSpace=wrap;html=1;glass=0;sketch=1;shadow=0;" vertex="1" parent="69O0-bxh-F-5_FMToNyd-1">
          <mxGeometry x="-210" y="-620" width="120" height="60" as="geometry" />
        </mxCell>
        <mxCell id="eIkQztVxaQHjGuMZLlB3-48" style="edgeStyle=orthogonalEdgeStyle;rounded=0;orthogonalLoop=1;jettySize=auto;html=1;strokeWidth=2;" edge="1" parent="69O0-bxh-F-5_FMToNyd-1" source="eIkQztVxaQHjGuMZLlB3-49" target="eIkQztVxaQHjGuMZLlB3-59">
          <mxGeometry relative="1" as="geometry" />
        </mxCell>
        <mxCell id="eIkQztVxaQHjGuMZLlB3-49" value="Validator" style="rounded=0;whiteSpace=wrap;html=1;glass=0;sketch=1;shadow=0;" vertex="1" parent="69O0-bxh-F-5_FMToNyd-1">
          <mxGeometry x="-780" y="-620" width="120" height="60" as="geometry" />
        </mxCell>
        <mxCell id="eIkQztVxaQHjGuMZLlB3-50" value="Express" style="rounded=0;whiteSpace=wrap;html=1;glass=0;sketch=1;shadow=0;" vertex="1" parent="69O0-bxh-F-5_FMToNyd-1">
          <mxGeometry x="-210" y="-335" width="120" height="60" as="geometry" />
        </mxCell>
        <mxCell id="eIkQztVxaQHjGuMZLlB3-51" value="MongoDB" style="rounded=0;whiteSpace=wrap;html=1;glass=0;sketch=1;shadow=0;" vertex="1" parent="69O0-bxh-F-5_FMToNyd-1">
          <mxGeometry x="75" y="-1015" width="120" height="60" as="geometry" />
        </mxCell>
        <mxCell id="eIkQztVxaQHjGuMZLlB3-52" value="BCrypt" style="rounded=0;whiteSpace=wrap;html=1;glass=0;sketch=1;shadow=0;" vertex="1" parent="69O0-bxh-F-5_FMToNyd-1">
          <mxGeometry x="-610" y="-1020" width="120" height="60" as="geometry" />
        </mxCell>
        <mxCell id="eIkQztVxaQHjGuMZLlB3-53" style="edgeStyle=orthogonalEdgeStyle;rounded=0;orthogonalLoop=1;jettySize=auto;html=1;strokeWidth=2;" edge="1" parent="69O0-bxh-F-5_FMToNyd-1" source="eIkQztVxaQHjGuMZLlB3-55" target="eIkQztVxaQHjGuMZLlB3-57">
          <mxGeometry relative="1" as="geometry" />
        </mxCell>
        <mxCell id="eIkQztVxaQHjGuMZLlB3-54" style="edgeStyle=orthogonalEdgeStyle;rounded=0;orthogonalLoop=1;jettySize=auto;html=1;strokeWidth=2;" edge="1" parent="69O0-bxh-F-5_FMToNyd-1" source="eIkQztVxaQHjGuMZLlB3-55" target="eIkQztVxaQHjGuMZLlB3-50">
          <mxGeometry relative="1" as="geometry" />
        </mxCell>
        <mxCell id="eIkQztVxaQHjGuMZLlB3-55" value="ExpressRouteAdapter" style="rounded=0;whiteSpace=wrap;html=1;glass=0;sketch=1;shadow=0;" vertex="1" parent="69O0-bxh-F-5_FMToNyd-1">
          <mxGeometry x="-245" y="-430" width="190" height="60" as="geometry" />
        </mxCell>
        <mxCell id="eIkQztVxaQHjGuMZLlB3-56" value="&lt;b&gt;Presentation&lt;/b&gt;" style="text;html=1;strokeColor=none;fillColor=none;align=center;verticalAlign=middle;whiteSpace=wrap;rounded=0;shadow=0;glass=0;sketch=1;" vertex="1" parent="69O0-bxh-F-5_FMToNyd-1">
          <mxGeometry x="-50" y="-670" width="40" height="20" as="geometry" />
        </mxCell>
        <mxCell id="eIkQztVxaQHjGuMZLlB3-57" value="Controller" style="rounded=1;whiteSpace=wrap;html=1;glass=0;sketch=0;shadow=0;dashed=1;strokeWidth=2;" vertex="1" parent="69O0-bxh-F-5_FMToNyd-1">
          <mxGeometry x="-200" y="-530" width="100" height="50" as="geometry" />
        </mxCell>
        <mxCell id="eIkQztVxaQHjGuMZLlB3-58" style="edgeStyle=orthogonalEdgeStyle;rounded=0;orthogonalLoop=1;jettySize=auto;html=1;strokeWidth=2;" edge="1" parent="69O0-bxh-F-5_FMToNyd-1" source="eIkQztVxaQHjGuMZLlB3-59" target="eIkQztVxaQHjGuMZLlB3-60">
          <mxGeometry relative="1" as="geometry" />
        </mxCell>
        <mxCell id="eIkQztVxaQHjGuMZLlB3-59" value="EmailValidatorAdapter" style="rounded=0;whiteSpace=wrap;html=1;glass=0;sketch=1;shadow=0;" vertex="1" parent="69O0-bxh-F-5_FMToNyd-1">
          <mxGeometry x="-610" y="-620" width="150" height="60" as="geometry" />
        </mxCell>
        <mxCell id="eIkQztVxaQHjGuMZLlB3-60" value="EmailValidator" style="rounded=1;whiteSpace=wrap;html=1;glass=0;sketch=0;shadow=0;dashed=1;strokeWidth=2;" vertex="1" parent="69O0-bxh-F-5_FMToNyd-1">
          <mxGeometry x="-360" y="-615" width="100" height="50" as="geometry" />
        </mxCell>
        <mxCell id="eIkQztVxaQHjGuMZLlB3-61" value="AddAccount" style="rounded=1;whiteSpace=wrap;html=1;glass=0;sketch=0;shadow=0;dashed=1;strokeWidth=2;" vertex="1" parent="69O0-bxh-F-5_FMToNyd-1">
          <mxGeometry x="95" y="-610" width="100" height="50" as="geometry" />
        </mxCell>
        <mxCell id="eIkQztVxaQHjGuMZLlB3-62" value="" style="rounded=0;whiteSpace=wrap;html=1;shadow=0;glass=0;sketch=1;" vertex="1" parent="69O0-bxh-F-5_FMToNyd-1">
          <mxGeometry x="-400" y="-870" width="400" height="180" as="geometry" />
        </mxCell>
        <mxCell id="eIkQztVxaQHjGuMZLlB3-63" value="&lt;b&gt;Data&lt;/b&gt;" style="text;html=1;strokeColor=none;fillColor=none;align=center;verticalAlign=middle;whiteSpace=wrap;rounded=0;shadow=0;glass=0;sketch=1;" vertex="1" parent="69O0-bxh-F-5_FMToNyd-1">
          <mxGeometry x="-60" y="-890" width="40" height="20" as="geometry" />
        </mxCell>
        <mxCell id="eIkQztVxaQHjGuMZLlB3-64" style="edgeStyle=orthogonalEdgeStyle;rounded=0;orthogonalLoop=1;jettySize=auto;html=1;strokeWidth=2;" edge="1" parent="69O0-bxh-F-5_FMToNyd-1" source="eIkQztVxaQHjGuMZLlB3-67" target="eIkQztVxaQHjGuMZLlB3-61">
          <mxGeometry relative="1" as="geometry" />
        </mxCell>
        <mxCell id="eIkQztVxaQHjGuMZLlB3-65" style="edgeStyle=orthogonalEdgeStyle;rounded=0;orthogonalLoop=1;jettySize=auto;html=1;entryX=0.5;entryY=1;entryDx=0;entryDy=0;strokeWidth=2;" edge="1" parent="69O0-bxh-F-5_FMToNyd-1" source="eIkQztVxaQHjGuMZLlB3-67" target="eIkQztVxaQHjGuMZLlB3-73">
          <mxGeometry relative="1" as="geometry" />
        </mxCell>
        <mxCell id="eIkQztVxaQHjGuMZLlB3-66" style="edgeStyle=orthogonalEdgeStyle;rounded=0;orthogonalLoop=1;jettySize=auto;html=1;entryX=0.5;entryY=1;entryDx=0;entryDy=0;strokeWidth=2;" edge="1" parent="69O0-bxh-F-5_FMToNyd-1" source="eIkQztVxaQHjGuMZLlB3-67" target="eIkQztVxaQHjGuMZLlB3-77">
          <mxGeometry relative="1" as="geometry" />
        </mxCell>
        <mxCell id="eIkQztVxaQHjGuMZLlB3-67" value="DbAddAccount" style="rounded=0;whiteSpace=wrap;html=1;glass=0;sketch=1;shadow=0;" vertex="1" parent="69O0-bxh-F-5_FMToNyd-1">
          <mxGeometry x="-250" y="-790" width="120" height="60" as="geometry" />
        </mxCell>
        <mxCell id="eIkQztVxaQHjGuMZLlB3-68" value="" style="rounded=0;whiteSpace=wrap;html=1;shadow=0;glass=0;sketch=1;" vertex="1" parent="69O0-bxh-F-5_FMToNyd-1">
          <mxGeometry x="-400" y="-1040" width="400" height="110" as="geometry" />
        </mxCell>
        <mxCell id="eIkQztVxaQHjGuMZLlB3-69" value="&lt;b&gt;Infra&lt;/b&gt;" style="text;html=1;strokeColor=none;fillColor=none;align=center;verticalAlign=middle;whiteSpace=wrap;rounded=0;shadow=0;glass=0;sketch=1;" vertex="1" parent="69O0-bxh-F-5_FMToNyd-1">
          <mxGeometry x="-60" y="-1060" width="40" height="20" as="geometry" />
        </mxCell>
        <mxCell id="eIkQztVxaQHjGuMZLlB3-70" style="edgeStyle=orthogonalEdgeStyle;rounded=0;orthogonalLoop=1;jettySize=auto;html=1;strokeWidth=2;" edge="1" parent="69O0-bxh-F-5_FMToNyd-1" source="eIkQztVxaQHjGuMZLlB3-72" target="eIkQztVxaQHjGuMZLlB3-52">
          <mxGeometry relative="1" as="geometry" />
        </mxCell>
        <mxCell id="eIkQztVxaQHjGuMZLlB3-71" style="edgeStyle=orthogonalEdgeStyle;rounded=0;orthogonalLoop=1;jettySize=auto;html=1;entryX=0.5;entryY=0;entryDx=0;entryDy=0;strokeWidth=2;" edge="1" parent="69O0-bxh-F-5_FMToNyd-1" source="eIkQztVxaQHjGuMZLlB3-72" target="eIkQztVxaQHjGuMZLlB3-73">
          <mxGeometry relative="1" as="geometry" />
        </mxCell>
        <mxCell id="eIkQztVxaQHjGuMZLlB3-72" value="BcryptAdapter" style="rounded=0;whiteSpace=wrap;html=1;glass=0;sketch=1;shadow=0;" vertex="1" parent="69O0-bxh-F-5_FMToNyd-1">
          <mxGeometry x="-370" y="-1020" width="130" height="60" as="geometry" />
        </mxCell>
        <mxCell id="eIkQztVxaQHjGuMZLlB3-73" value="Encrypter" style="rounded=1;whiteSpace=wrap;html=1;glass=0;sketch=0;shadow=0;dashed=1;strokeWidth=2;" vertex="1" parent="69O0-bxh-F-5_FMToNyd-1">
          <mxGeometry x="-380" y="-840" width="100" height="50" as="geometry" />
        </mxCell>
        <mxCell id="eIkQztVxaQHjGuMZLlB3-74" style="edgeStyle=orthogonalEdgeStyle;rounded=0;orthogonalLoop=1;jettySize=auto;html=1;strokeWidth=2;" edge="1" parent="69O0-bxh-F-5_FMToNyd-1" source="eIkQztVxaQHjGuMZLlB3-76" target="eIkQztVxaQHjGuMZLlB3-51">
          <mxGeometry relative="1" as="geometry" />
        </mxCell>
        <mxCell id="eIkQztVxaQHjGuMZLlB3-75" style="edgeStyle=orthogonalEdgeStyle;rounded=0;orthogonalLoop=1;jettySize=auto;html=1;strokeWidth=2;" edge="1" parent="69O0-bxh-F-5_FMToNyd-1" source="eIkQztVxaQHjGuMZLlB3-76" target="eIkQztVxaQHjGuMZLlB3-77">
          <mxGeometry relative="1" as="geometry" />
        </mxCell>
        <mxCell id="eIkQztVxaQHjGuMZLlB3-76" value="AddUserMongoRepo" style="rounded=0;whiteSpace=wrap;html=1;glass=0;sketch=1;shadow=0;" vertex="1" parent="69O0-bxh-F-5_FMToNyd-1">
          <mxGeometry x="-160" y="-1020" width="130" height="60" as="geometry" />
        </mxCell>
        <mxCell id="eIkQztVxaQHjGuMZLlB3-77" value="AddUserRepo" style="rounded=1;whiteSpace=wrap;html=1;glass=0;sketch=0;shadow=0;dashed=1;strokeWidth=2;" vertex="1" parent="69O0-bxh-F-5_FMToNyd-1">
          <mxGeometry x="-120" y="-850" width="100" height="50" as="geometry" />
        </mxCell>
      </root>
    </mxGraphModel>
  </diagram>
  <diagram name="Color SignUpFinal" id="XlxB8sv5o_rUKSyUSH7C">
    <mxGraphModel dx="3101" dy="1972" grid="1" gridSize="10" guides="1" tooltips="1" connect="1" arrows="1" fold="1" page="1" pageScale="1" pageWidth="827" pageHeight="1169" math="0" shadow="0">
      <root>
        <mxCell id="tjHgCpA0E6VQ1bGKVmpZ-0" />
        <mxCell id="tjHgCpA0E6VQ1bGKVmpZ-1" parent="tjHgCpA0E6VQ1bGKVmpZ-0" />
        <mxCell id="tjHgCpA0E6VQ1bGKVmpZ-2" value="" style="rounded=0;whiteSpace=wrap;html=1;shadow=0;glass=0;sketch=1;strokeColor=#B09500;fontColor=#ffffff;fillColor=#e3c800;" vertex="1" parent="tjHgCpA0E6VQ1bGKVmpZ-1">
          <mxGeometry x="440" y="-920" width="190" height="310" as="geometry" />
        </mxCell>
        <mxCell id="tjHgCpA0E6VQ1bGKVmpZ-3" value="&lt;b style=&quot;font-size: 22px;&quot;&gt;Domain&lt;/b&gt;" style="text;html=1;strokeColor=none;fillColor=none;align=center;verticalAlign=middle;whiteSpace=wrap;rounded=0;shadow=0;glass=0;sketch=1;fontSize=22;" vertex="1" parent="tjHgCpA0E6VQ1bGKVmpZ-1">
          <mxGeometry x="570" y="-950" width="40" height="20" as="geometry" />
        </mxCell>
        <mxCell id="tjHgCpA0E6VQ1bGKVmpZ-53" style="edgeStyle=orthogonalEdgeStyle;rounded=0;orthogonalLoop=1;jettySize=auto;html=1;strokeWidth=2;fontSize=22;" edge="1" parent="tjHgCpA0E6VQ1bGKVmpZ-1" source="tjHgCpA0E6VQ1bGKVmpZ-4" target="tjHgCpA0E6VQ1bGKVmpZ-12">
          <mxGeometry relative="1" as="geometry" />
        </mxCell>
        <mxCell id="tjHgCpA0E6VQ1bGKVmpZ-4" value="" style="rounded=0;whiteSpace=wrap;html=1;shadow=0;glass=0;sketch=1;fillColor=#dae8fc;strokeColor=#6c8ebf;" vertex="1" parent="tjHgCpA0E6VQ1bGKVmpZ-1">
          <mxGeometry x="-400" y="-620" width="260" height="110" as="geometry" />
        </mxCell>
        <mxCell id="tjHgCpA0E6VQ1bGKVmpZ-5" value="&lt;b style=&quot;font-size: 22px;&quot;&gt;Utils&lt;/b&gt;" style="text;html=1;strokeColor=none;fillColor=none;align=center;verticalAlign=middle;whiteSpace=wrap;rounded=0;shadow=0;glass=0;sketch=1;fontSize=22;" vertex="1" parent="tjHgCpA0E6VQ1bGKVmpZ-1">
          <mxGeometry x="-200" y="-640" width="40" height="20" as="geometry" />
        </mxCell>
        <mxCell id="tjHgCpA0E6VQ1bGKVmpZ-6" value="" style="rounded=0;whiteSpace=wrap;html=1;shadow=0;glass=0;sketch=1;fillColor=#cdeb8b;strokeColor=#36393d;" vertex="1" parent="tjHgCpA0E6VQ1bGKVmpZ-1">
          <mxGeometry x="-80" y="-620" width="440" height="240" as="geometry" />
        </mxCell>
        <mxCell id="tjHgCpA0E6VQ1bGKVmpZ-7" style="edgeStyle=orthogonalEdgeStyle;rounded=0;orthogonalLoop=1;jettySize=auto;html=1;strokeWidth=2;" edge="1" parent="tjHgCpA0E6VQ1bGKVmpZ-1" source="tjHgCpA0E6VQ1bGKVmpZ-10" target="tjHgCpA0E6VQ1bGKVmpZ-20">
          <mxGeometry relative="1" as="geometry" />
        </mxCell>
        <mxCell id="tjHgCpA0E6VQ1bGKVmpZ-8" style="edgeStyle=orthogonalEdgeStyle;rounded=0;orthogonalLoop=1;jettySize=auto;html=1;strokeWidth=2;" edge="1" parent="tjHgCpA0E6VQ1bGKVmpZ-1" source="tjHgCpA0E6VQ1bGKVmpZ-10" target="tjHgCpA0E6VQ1bGKVmpZ-23">
          <mxGeometry relative="1" as="geometry" />
        </mxCell>
        <mxCell id="tjHgCpA0E6VQ1bGKVmpZ-9" style="edgeStyle=orthogonalEdgeStyle;rounded=0;orthogonalLoop=1;jettySize=auto;html=1;strokeWidth=2;" edge="1" parent="tjHgCpA0E6VQ1bGKVmpZ-1" source="tjHgCpA0E6VQ1bGKVmpZ-10" target="tjHgCpA0E6VQ1bGKVmpZ-24">
          <mxGeometry relative="1" as="geometry" />
        </mxCell>
        <mxCell id="tjHgCpA0E6VQ1bGKVmpZ-57" style="edgeStyle=orthogonalEdgeStyle;rounded=0;orthogonalLoop=1;jettySize=auto;html=1;entryX=0.5;entryY=0;entryDx=0;entryDy=0;strokeWidth=2;fontSize=22;" edge="1" parent="tjHgCpA0E6VQ1bGKVmpZ-1" source="tjHgCpA0E6VQ1bGKVmpZ-10" target="tjHgCpA0E6VQ1bGKVmpZ-55">
          <mxGeometry relative="1" as="geometry" />
        </mxCell>
        <mxCell id="tjHgCpA0E6VQ1bGKVmpZ-58" style="edgeStyle=orthogonalEdgeStyle;rounded=0;orthogonalLoop=1;jettySize=auto;html=1;entryX=0.5;entryY=0.2;entryDx=0;entryDy=0;entryPerimeter=0;strokeWidth=2;fontSize=22;" edge="1" parent="tjHgCpA0E6VQ1bGKVmpZ-1" source="tjHgCpA0E6VQ1bGKVmpZ-10" target="tjHgCpA0E6VQ1bGKVmpZ-56">
          <mxGeometry relative="1" as="geometry">
            <Array as="points">
              <mxPoint x="170" y="-520" />
              <mxPoint x="10" y="-520" />
              <mxPoint x="10" y="-460" />
            </Array>
          </mxGeometry>
        </mxCell>
        <mxCell id="tjHgCpA0E6VQ1bGKVmpZ-10" value="SignUpController" style="rounded=0;whiteSpace=wrap;html=1;glass=0;sketch=1;shadow=0;fontSize=17;" vertex="1" parent="tjHgCpA0E6VQ1bGKVmpZ-1">
          <mxGeometry x="140" y="-590" width="140" height="60" as="geometry" />
        </mxCell>
        <mxCell id="tjHgCpA0E6VQ1bGKVmpZ-12" value="Validator" style="rounded=0;whiteSpace=wrap;html=1;glass=0;sketch=0;shadow=0;fillColor=#d0cee2;strokeColor=#56517e;fontSize=16;" vertex="1" parent="tjHgCpA0E6VQ1bGKVmpZ-1">
          <mxGeometry x="-320" y="-440" width="120" height="60" as="geometry" />
        </mxCell>
        <mxCell id="tjHgCpA0E6VQ1bGKVmpZ-14" value="MongoDB" style="rounded=0;whiteSpace=wrap;html=1;glass=0;sketch=0;shadow=0;fillColor=#d0cee2;strokeColor=#56517e;fontSize=17;" vertex="1" parent="tjHgCpA0E6VQ1bGKVmpZ-1">
          <mxGeometry x="175" y="-1169" width="120" height="60" as="geometry" />
        </mxCell>
        <mxCell id="tjHgCpA0E6VQ1bGKVmpZ-15" value="BCrypt" style="rounded=0;whiteSpace=wrap;html=1;glass=0;sketch=0;shadow=0;fillColor=#d0cee2;strokeColor=#56517e;fontSize=17;" vertex="1" parent="tjHgCpA0E6VQ1bGKVmpZ-1">
          <mxGeometry x="-355" y="-1169" width="120" height="60" as="geometry" />
        </mxCell>
        <mxCell id="tjHgCpA0E6VQ1bGKVmpZ-17" style="edgeStyle=orthogonalEdgeStyle;rounded=0;orthogonalLoop=1;jettySize=auto;html=1;strokeWidth=2;" edge="1" parent="tjHgCpA0E6VQ1bGKVmpZ-1" source="tjHgCpA0E6VQ1bGKVmpZ-18">
          <mxGeometry relative="1" as="geometry">
            <mxPoint x="-149.99999999999977" y="-335" as="targetPoint" />
          </mxGeometry>
        </mxCell>
        <mxCell id="tjHgCpA0E6VQ1bGKVmpZ-19" value="&lt;b style=&quot;font-size: 22px;&quot;&gt;Presentation&lt;/b&gt;" style="text;html=1;strokeColor=none;fillColor=none;align=center;verticalAlign=middle;whiteSpace=wrap;rounded=0;shadow=0;glass=0;sketch=1;fontSize=22;" vertex="1" parent="tjHgCpA0E6VQ1bGKVmpZ-1">
          <mxGeometry x="275" y="-640" width="40" height="20" as="geometry" />
        </mxCell>
        <mxCell id="tjHgCpA0E6VQ1bGKVmpZ-20" value="Controller" style="rounded=1;whiteSpace=wrap;html=1;glass=0;sketch=0;shadow=0;dashed=1;strokeWidth=2;" vertex="1" parent="tjHgCpA0E6VQ1bGKVmpZ-1">
          <mxGeometry x="220" y="-470" width="100" height="50" as="geometry" />
        </mxCell>
        <mxCell id="tjHgCpA0E6VQ1bGKVmpZ-21" style="edgeStyle=orthogonalEdgeStyle;rounded=0;orthogonalLoop=1;jettySize=auto;html=1;strokeWidth=2;" edge="1" parent="tjHgCpA0E6VQ1bGKVmpZ-1" source="tjHgCpA0E6VQ1bGKVmpZ-22" target="tjHgCpA0E6VQ1bGKVmpZ-23">
          <mxGeometry relative="1" as="geometry" />
        </mxCell>
        <mxCell id="tjHgCpA0E6VQ1bGKVmpZ-22" value="EmailValidatorAdapter" style="rounded=0;whiteSpace=wrap;html=1;glass=0;sketch=1;shadow=0;" vertex="1" parent="tjHgCpA0E6VQ1bGKVmpZ-1">
          <mxGeometry x="-335" y="-590" width="150" height="60" as="geometry" />
        </mxCell>
        <mxCell id="tjHgCpA0E6VQ1bGKVmpZ-23" value="EmailValidator" style="rounded=1;whiteSpace=wrap;html=1;glass=0;sketch=0;shadow=0;dashed=1;strokeWidth=2;" vertex="1" parent="tjHgCpA0E6VQ1bGKVmpZ-1">
          <mxGeometry x="-10" y="-585" width="100" height="50" as="geometry" />
        </mxCell>
        <mxCell id="tjHgCpA0E6VQ1bGKVmpZ-24" value="AddAccount" style="rounded=1;whiteSpace=wrap;html=1;glass=0;sketch=0;shadow=0;dashed=1;strokeWidth=2;fontSize=17;" vertex="1" parent="tjHgCpA0E6VQ1bGKVmpZ-1">
          <mxGeometry x="485" y="-830" width="115" height="50" as="geometry" />
        </mxCell>
        <mxCell id="tjHgCpA0E6VQ1bGKVmpZ-25" value="" style="rounded=0;whiteSpace=wrap;html=1;shadow=0;glass=0;sketch=1;fillColor=#fad9d5;strokeColor=#ae4132;" vertex="1" parent="tjHgCpA0E6VQ1bGKVmpZ-1">
          <mxGeometry x="-400" y="-880" width="760" height="210" as="geometry" />
        </mxCell>
        <mxCell id="tjHgCpA0E6VQ1bGKVmpZ-26" value="&lt;b style=&quot;font-size: 22px;&quot;&gt;Data&lt;/b&gt;" style="text;html=1;strokeColor=none;fillColor=none;align=center;verticalAlign=middle;whiteSpace=wrap;rounded=0;shadow=0;glass=0;sketch=1;fontSize=22;" vertex="1" parent="tjHgCpA0E6VQ1bGKVmpZ-1">
          <mxGeometry x="315" y="-900" width="40" height="20" as="geometry" />
        </mxCell>
        <mxCell id="tjHgCpA0E6VQ1bGKVmpZ-27" style="edgeStyle=orthogonalEdgeStyle;rounded=0;orthogonalLoop=1;jettySize=auto;html=1;strokeWidth=2;" edge="1" parent="tjHgCpA0E6VQ1bGKVmpZ-1" source="tjHgCpA0E6VQ1bGKVmpZ-30" target="tjHgCpA0E6VQ1bGKVmpZ-24">
          <mxGeometry relative="1" as="geometry">
            <Array as="points">
              <mxPoint x="500" y="-720" />
            </Array>
          </mxGeometry>
        </mxCell>
        <mxCell id="tjHgCpA0E6VQ1bGKVmpZ-28" style="edgeStyle=orthogonalEdgeStyle;rounded=0;orthogonalLoop=1;jettySize=auto;html=1;entryX=0.5;entryY=1;entryDx=0;entryDy=0;strokeWidth=2;" edge="1" parent="tjHgCpA0E6VQ1bGKVmpZ-1" source="tjHgCpA0E6VQ1bGKVmpZ-30" target="tjHgCpA0E6VQ1bGKVmpZ-36">
          <mxGeometry relative="1" as="geometry" />
        </mxCell>
        <mxCell id="tjHgCpA0E6VQ1bGKVmpZ-29" style="edgeStyle=orthogonalEdgeStyle;rounded=0;orthogonalLoop=1;jettySize=auto;html=1;entryX=0.5;entryY=1;entryDx=0;entryDy=0;strokeWidth=2;" edge="1" parent="tjHgCpA0E6VQ1bGKVmpZ-1" source="tjHgCpA0E6VQ1bGKVmpZ-30" target="tjHgCpA0E6VQ1bGKVmpZ-40">
          <mxGeometry relative="1" as="geometry" />
        </mxCell>
        <mxCell id="tjHgCpA0E6VQ1bGKVmpZ-30" value="DbAddAccount" style="rounded=0;whiteSpace=wrap;html=1;glass=0;sketch=1;shadow=0;fontSize=17;" vertex="1" parent="tjHgCpA0E6VQ1bGKVmpZ-1">
          <mxGeometry x="-90" y="-750" width="140" height="60" as="geometry" />
        </mxCell>
        <mxCell id="tjHgCpA0E6VQ1bGKVmpZ-31" value="" style="rounded=0;whiteSpace=wrap;html=1;shadow=0;glass=0;sketch=1;fillColor=#e1d5e7;" vertex="1" parent="tjHgCpA0E6VQ1bGKVmpZ-1">
          <mxGeometry x="-400" y="-1040" width="760" height="110" as="geometry" />
        </mxCell>
        <mxCell id="tjHgCpA0E6VQ1bGKVmpZ-32" value="&lt;b style=&quot;font-size: 22px;&quot;&gt;Infra&lt;/b&gt;" style="text;html=1;strokeColor=none;fillColor=none;align=center;verticalAlign=middle;whiteSpace=wrap;rounded=0;shadow=0;glass=0;sketch=1;fontSize=22;" vertex="1" parent="tjHgCpA0E6VQ1bGKVmpZ-1">
          <mxGeometry x="315" y="-1070" width="40" height="20" as="geometry" />
        </mxCell>
        <mxCell id="tjHgCpA0E6VQ1bGKVmpZ-33" style="edgeStyle=orthogonalEdgeStyle;rounded=0;orthogonalLoop=1;jettySize=auto;html=1;strokeWidth=2;" edge="1" parent="tjHgCpA0E6VQ1bGKVmpZ-1" source="tjHgCpA0E6VQ1bGKVmpZ-35" target="tjHgCpA0E6VQ1bGKVmpZ-15">
          <mxGeometry relative="1" as="geometry" />
        </mxCell>
        <mxCell id="tjHgCpA0E6VQ1bGKVmpZ-34" style="edgeStyle=orthogonalEdgeStyle;rounded=0;orthogonalLoop=1;jettySize=auto;html=1;entryX=0.5;entryY=0;entryDx=0;entryDy=0;strokeWidth=2;" edge="1" parent="tjHgCpA0E6VQ1bGKVmpZ-1" source="tjHgCpA0E6VQ1bGKVmpZ-35" target="tjHgCpA0E6VQ1bGKVmpZ-36">
          <mxGeometry relative="1" as="geometry" />
        </mxCell>
        <mxCell id="tjHgCpA0E6VQ1bGKVmpZ-35" value="BcryptAdapter" style="rounded=0;whiteSpace=wrap;html=1;glass=0;sketch=1;shadow=0;fontSize=17;" vertex="1" parent="tjHgCpA0E6VQ1bGKVmpZ-1">
          <mxGeometry x="-360" y="-1015" width="130" height="60" as="geometry" />
        </mxCell>
        <mxCell id="tjHgCpA0E6VQ1bGKVmpZ-36" value="Encrypter" style="rounded=1;whiteSpace=wrap;html=1;glass=0;sketch=0;shadow=0;dashed=1;strokeWidth=2;fontSize=17;" vertex="1" parent="tjHgCpA0E6VQ1bGKVmpZ-1">
          <mxGeometry x="-355" y="-840" width="100" height="50" as="geometry" />
        </mxCell>
        <mxCell id="tjHgCpA0E6VQ1bGKVmpZ-37" style="edgeStyle=orthogonalEdgeStyle;rounded=0;orthogonalLoop=1;jettySize=auto;html=1;strokeWidth=2;" edge="1" parent="tjHgCpA0E6VQ1bGKVmpZ-1" source="tjHgCpA0E6VQ1bGKVmpZ-39" target="tjHgCpA0E6VQ1bGKVmpZ-14">
          <mxGeometry relative="1" as="geometry" />
        </mxCell>
        <mxCell id="tjHgCpA0E6VQ1bGKVmpZ-38" style="edgeStyle=orthogonalEdgeStyle;rounded=0;orthogonalLoop=1;jettySize=auto;html=1;strokeWidth=2;" edge="1" parent="tjHgCpA0E6VQ1bGKVmpZ-1" source="tjHgCpA0E6VQ1bGKVmpZ-39" target="tjHgCpA0E6VQ1bGKVmpZ-40">
          <mxGeometry relative="1" as="geometry" />
        </mxCell>
        <mxCell id="tjHgCpA0E6VQ1bGKVmpZ-39" value="AddUserMongoRepo" style="rounded=0;whiteSpace=wrap;html=1;glass=0;sketch=1;shadow=0;fontSize=17;" vertex="1" parent="tjHgCpA0E6VQ1bGKVmpZ-1">
          <mxGeometry x="150" y="-1015" width="170" height="60" as="geometry" />
        </mxCell>
        <mxCell id="tjHgCpA0E6VQ1bGKVmpZ-40" value="AddUserRepo" style="rounded=1;whiteSpace=wrap;html=1;glass=0;sketch=0;shadow=0;dashed=1;strokeWidth=2;fontSize=17;" vertex="1" parent="tjHgCpA0E6VQ1bGKVmpZ-1">
          <mxGeometry x="160" y="-840" width="150" height="50" as="geometry" />
        </mxCell>
        <mxCell id="tjHgCpA0E6VQ1bGKVmpZ-46" style="edgeStyle=orthogonalEdgeStyle;rounded=0;orthogonalLoop=1;jettySize=auto;html=1;entryX=0;entryY=0.5;entryDx=0;entryDy=0;strokeWidth=2;fontSize=22;" edge="1" parent="tjHgCpA0E6VQ1bGKVmpZ-1" source="tjHgCpA0E6VQ1bGKVmpZ-43" target="tjHgCpA0E6VQ1bGKVmpZ-14">
          <mxGeometry relative="1" as="geometry" />
        </mxCell>
        <mxCell id="tjHgCpA0E6VQ1bGKVmpZ-48" style="edgeStyle=orthogonalEdgeStyle;rounded=0;orthogonalLoop=1;jettySize=auto;html=1;strokeWidth=2;fontSize=22;" edge="1" parent="tjHgCpA0E6VQ1bGKVmpZ-1" source="tjHgCpA0E6VQ1bGKVmpZ-43" target="tjHgCpA0E6VQ1bGKVmpZ-44">
          <mxGeometry relative="1" as="geometry" />
        </mxCell>
        <mxCell id="tjHgCpA0E6VQ1bGKVmpZ-43" value="LoadUserByEmailMongoRepo" style="rounded=0;whiteSpace=wrap;html=1;glass=0;sketch=1;shadow=0;fontSize=17;" vertex="1" parent="tjHgCpA0E6VQ1bGKVmpZ-1">
          <mxGeometry x="-180" y="-1015" width="265" height="60" as="geometry" />
        </mxCell>
        <mxCell id="tjHgCpA0E6VQ1bGKVmpZ-45" style="edgeStyle=orthogonalEdgeStyle;rounded=0;orthogonalLoop=1;jettySize=auto;html=1;strokeWidth=2;fontSize=22;" edge="1" parent="tjHgCpA0E6VQ1bGKVmpZ-1" source="tjHgCpA0E6VQ1bGKVmpZ-44" target="tjHgCpA0E6VQ1bGKVmpZ-30">
          <mxGeometry relative="1" as="geometry" />
        </mxCell>
        <mxCell id="tjHgCpA0E6VQ1bGKVmpZ-44" value="LoadUserByEmailRepo" style="rounded=1;whiteSpace=wrap;html=1;glass=0;sketch=0;shadow=0;dashed=1;strokeWidth=2;fontSize=17;" vertex="1" parent="tjHgCpA0E6VQ1bGKVmpZ-1">
          <mxGeometry x="-167.5" y="-850" width="240" height="50" as="geometry" />
        </mxCell>
        <mxCell id="tjHgCpA0E6VQ1bGKVmpZ-55" value="HttpResponse" style="rounded=1;whiteSpace=wrap;html=1;glass=0;sketch=0;shadow=0;dashed=1;strokeWidth=2;" vertex="1" parent="tjHgCpA0E6VQ1bGKVmpZ-1">
          <mxGeometry x="90" y="-470" width="100" height="50" as="geometry" />
        </mxCell>
        <mxCell id="tjHgCpA0E6VQ1bGKVmpZ-56" value="HttpRequest" style="rounded=1;whiteSpace=wrap;html=1;glass=0;sketch=0;shadow=0;dashed=1;strokeWidth=2;" vertex="1" parent="tjHgCpA0E6VQ1bGKVmpZ-1">
          <mxGeometry x="-50" y="-470" width="100" height="50" as="geometry" />
        </mxCell>
        <mxCell id="tjHgCpA0E6VQ1bGKVmpZ-66" style="edgeStyle=orthogonalEdgeStyle;rounded=0;orthogonalLoop=1;jettySize=auto;html=1;entryX=0;entryY=0.5;entryDx=0;entryDy=0;strokeWidth=2;fontSize=17;" edge="1" parent="tjHgCpA0E6VQ1bGKVmpZ-1" source="tjHgCpA0E6VQ1bGKVmpZ-59" target="tjHgCpA0E6VQ1bGKVmpZ-31">
          <mxGeometry relative="1" as="geometry">
            <Array as="points">
              <mxPoint x="-660" y="-985" />
            </Array>
          </mxGeometry>
        </mxCell>
        <mxCell id="tjHgCpA0E6VQ1bGKVmpZ-71" style="edgeStyle=orthogonalEdgeStyle;rounded=0;orthogonalLoop=1;jettySize=auto;html=1;entryX=0.5;entryY=1;entryDx=0;entryDy=0;strokeWidth=2;fontSize=16;" edge="1" parent="tjHgCpA0E6VQ1bGKVmpZ-1" source="tjHgCpA0E6VQ1bGKVmpZ-59" target="tjHgCpA0E6VQ1bGKVmpZ-6">
          <mxGeometry relative="1" as="geometry">
            <Array as="points">
              <mxPoint x="-645" y="-300" />
              <mxPoint x="140" y="-300" />
            </Array>
          </mxGeometry>
        </mxCell>
        <mxCell id="tjHgCpA0E6VQ1bGKVmpZ-59" value="" style="rounded=0;whiteSpace=wrap;html=1;shadow=0;glass=0;sketch=1;strokeColor=#b85450;fillColor=#f8cecc;gradientColor=#ea6b66;" vertex="1" parent="tjHgCpA0E6VQ1bGKVmpZ-1">
          <mxGeometry x="-780" y="-895" width="270" height="445" as="geometry" />
        </mxCell>
        <mxCell id="tjHgCpA0E6VQ1bGKVmpZ-60" value="SignUpComposer" style="rounded=0;whiteSpace=wrap;html=1;glass=0;sketch=1;shadow=0;fontSize=17;" vertex="1" parent="tjHgCpA0E6VQ1bGKVmpZ-1">
          <mxGeometry x="-730" y="-850" width="170" height="60" as="geometry" />
        </mxCell>
        <mxCell id="tjHgCpA0E6VQ1bGKVmpZ-70" style="edgeStyle=orthogonalEdgeStyle;rounded=0;orthogonalLoop=1;jettySize=auto;html=1;strokeWidth=2;fontSize=16;" edge="1" parent="tjHgCpA0E6VQ1bGKVmpZ-1" source="tjHgCpA0E6VQ1bGKVmpZ-61" target="tjHgCpA0E6VQ1bGKVmpZ-69">
          <mxGeometry relative="1" as="geometry" />
        </mxCell>
        <mxCell id="tjHgCpA0E6VQ1bGKVmpZ-61" value="ExpressRouteAdapter" style="rounded=0;whiteSpace=wrap;html=1;glass=0;sketch=1;shadow=0;fontSize=17;" vertex="1" parent="tjHgCpA0E6VQ1bGKVmpZ-1">
          <mxGeometry x="-740" y="-760" width="180" height="60" as="geometry" />
        </mxCell>
        <mxCell id="tjHgCpA0E6VQ1bGKVmpZ-68" style="edgeStyle=orthogonalEdgeStyle;rounded=0;orthogonalLoop=1;jettySize=auto;html=1;strokeWidth=2;fontSize=17;" edge="1" parent="tjHgCpA0E6VQ1bGKVmpZ-1" source="tjHgCpA0E6VQ1bGKVmpZ-62" target="tjHgCpA0E6VQ1bGKVmpZ-61">
          <mxGeometry relative="1" as="geometry" />
        </mxCell>
        <mxCell id="tjHgCpA0E6VQ1bGKVmpZ-62" value="SignUpRouter" style="rounded=0;whiteSpace=wrap;html=1;glass=0;sketch=1;shadow=0;fontSize=17;" vertex="1" parent="tjHgCpA0E6VQ1bGKVmpZ-1">
          <mxGeometry x="-720" y="-660" width="150" height="60" as="geometry" />
        </mxCell>
        <mxCell id="tjHgCpA0E6VQ1bGKVmpZ-67" style="edgeStyle=orthogonalEdgeStyle;rounded=0;orthogonalLoop=1;jettySize=auto;html=1;entryX=0.5;entryY=1;entryDx=0;entryDy=0;strokeWidth=2;fontSize=17;" edge="1" parent="tjHgCpA0E6VQ1bGKVmpZ-1" source="tjHgCpA0E6VQ1bGKVmpZ-63" target="tjHgCpA0E6VQ1bGKVmpZ-62">
          <mxGeometry relative="1" as="geometry" />
        </mxCell>
        <mxCell id="tjHgCpA0E6VQ1bGKVmpZ-63" value="App" style="rounded=0;whiteSpace=wrap;html=1;glass=0;sketch=1;shadow=0;fontSize=17;" vertex="1" parent="tjHgCpA0E6VQ1bGKVmpZ-1">
          <mxGeometry x="-720" y="-550" width="150" height="60" as="geometry" />
        </mxCell>
        <mxCell id="tjHgCpA0E6VQ1bGKVmpZ-64" value="&lt;b style=&quot;font-size: 22px&quot;&gt;Main&lt;/b&gt;" style="text;html=1;strokeColor=none;fillColor=none;align=center;verticalAlign=middle;whiteSpace=wrap;rounded=0;shadow=0;glass=0;sketch=1;fontSize=22;" vertex="1" parent="tjHgCpA0E6VQ1bGKVmpZ-1">
          <mxGeometry x="-610" y="-920" width="40" height="20" as="geometry" />
        </mxCell>
        <mxCell id="tjHgCpA0E6VQ1bGKVmpZ-69" value="Express" style="rounded=0;whiteSpace=wrap;html=1;glass=0;sketch=0;shadow=0;fillColor=#d0cee2;strokeColor=#56517e;fontSize=16;" vertex="1" parent="tjHgCpA0E6VQ1bGKVmpZ-1">
          <mxGeometry x="-960" y="-760" width="120" height="60" as="geometry" />
        </mxCell>
      </root>
    </mxGraphModel>
  </diagram>
</mxfile>
